<svg width="18" height="36" viewBox="0 0 18 36" fill="none" xmlns="http://www.w3.org/2000/svg">
<path d="M7.11102 2.91242C7.2638 2.91242 7.41576 2.85441 7.53259 2.73758L8.83817 1.43037L10.1454 2.73758C10.3782 2.97043 10.7549 2.97043 10.9877 2.73758C11.2206 2.50473 11.2206 2.12809 10.9877 1.89525L9.25974 0.167282C9.0367 -0.0557606 8.64045 -0.0557606 8.41741 0.167282L6.69026 1.89525C6.45741 2.12809 6.45741 2.50555 6.69026 2.73758C6.80627 2.85441 6.95906 2.91242 7.11102 2.91242Z" fill="#44FF00"/>
<path d="M10.1454 33.2568L8.83817 34.564L7.53259 33.2568C7.29975 33.0239 6.92311 33.0239 6.69026 33.2568C6.45741 33.4888 6.45741 33.8663 6.69026 34.0991L8.41741 35.8271C8.52934 35.939 8.68048 36.0019 8.83898 36.0019C8.99748 36.0019 9.14863 35.939 9.26056 35.8271L10.9885 34.0991C11.2214 33.8663 11.2214 33.4896 10.9885 33.2568C10.7557 33.0239 10.3782 33.0239 10.1454 33.2568Z" fill="#44FF00"/>
<path d="M8.83754 4.15698C3.96493 4.15698 0 8.12191 0 12.9953V23.0004C0 27.8738 3.96493 31.8387 8.83754 31.8387C13.711 31.8387 17.6767 27.8738 17.6767 23.0004V12.9945C17.6767 8.12191 13.7118 4.15698 8.83754 4.15698ZM16.4847 23.0004C16.4847 27.2169 13.0541 30.6467 8.83754 30.6467C4.62098 30.6467 1.19201 27.2169 1.19201 23.0004V12.9945C1.19201 8.77796 4.6218 5.34818 8.83754 5.34818C13.0533 5.34818 16.4847 8.77796 16.4847 12.9945V23.0004Z" fill="#44FF00"/>
<path d="M8.83743 8.19836C7.77941 8.19836 6.91992 9.05867 6.91992 10.1167V13.044C6.91992 14.102 7.78023 14.9623 8.83743 14.9623C9.89545 14.9623 10.7566 14.102 10.7566 13.044V10.1167C10.7566 9.05867 9.89545 8.19836 8.83743 8.19836ZM9.56538 13.044C9.56538 13.4452 9.2394 13.7712 8.83825 13.7712C8.43792 13.7712 8.11193 13.4452 8.11193 13.044V10.1167C8.11193 9.71554 8.43792 9.38956 8.83825 9.38956C9.2394 9.38956 9.56538 9.71554 9.56538 10.1167V13.044Z" fill="#44FF00"/>
</svg>
